<svg width="86" height="100" viewBox="0 0 86 100" fill="none" xmlns="http://www.w3.org/2000/svg">
<path d="M0.333496 0.832031V30.332C0.333496 38.4222 8.00925 45.082 17.3335 45.082V99.1654H28.6668V45.082C37.9911 45.082 45.6668 38.4222 45.6668 30.332V0.832031H34.3335V25.4154C34.3335 26.8904 33.2002 27.8737 31.5002 27.8737C29.8002 27.8737 28.6668 26.8904 28.6668 25.4154V0.832031H17.3335V25.4154C17.3335 26.8904 16.2002 27.8737 14.5002 27.8737C12.8002 27.8737 11.6668 26.8904 11.6668 25.4154V0.832031H0.333496ZM57.0002 0.832031V64.7487V99.1654H68.3335V64.7487H85.3335V20.4987C85.3335 9.68203 75.1335 0.832031 62.6668 0.832031H57.0002Z" fill="black"/>
</svg>
