<?xml version="1.0" standalone="no"?>
<!DOCTYPE svg PUBLIC "-//W3C//DTD SVG 20010904//EN"
 "http://www.w3.org/TR/2001/REC-SVG-20010904/DTD/svg10.dtd">
<svg version="1.0" xmlns="http://www.w3.org/2000/svg"
 width="248.000000pt" height="238.000000pt" viewBox="0 0 248.000000 238.000000"
 preserveAspectRatio="xMidYMid meet">

<g transform="translate(0.000000,238.000000) scale(0.100000,-0.100000)"
fill="#000000" stroke="none">
<path d="M805 2321 c-154 -81 -659 -367 -723 -409 -80 -53 -102 -114 -63 -177
10 -17 66 -71 124 -119 l105 -89 -119 -141 c-121 -144 -139 -176 -125 -232 11
-41 51 -73 179 -142 l115 -63 4 -202 c2 -141 7 -209 16 -225 16 -28 38 -42
363 -228 338 -193 529 -294 559 -294 29 0 210 95 535 280 307 175 372 216 388
244 8 14 13 88 15 223 l4 203 130 71 c141 77 168 105 168 171 0 40 -18 66
-162 234 -43 51 -78 96 -78 101 0 4 47 48 105 97 58 48 113 102 121 119 23 44
13 105 -23 138 -44 39 -622 369 -807 461 -113 56 -121 53 -271 -72 -66 -55
-122 -100 -125 -100 -3 0 -45 35 -95 76 -113 96 -172 134 -204 134 -15 0 -76
-27 -136 -59z m163 -263 c23 -18 41 -35 41 -38 1 -3 -126 -76 -280 -163 l-281
-158 -44 37 c-25 20 -43 38 -41 40 8 8 552 313 558 314 4 0 25 -15 47 -32z
m877 -125 c143 -80 264 -148 268 -153 5 -4 -12 -24 -36 -44 l-44 -36 -281 157
c-155 87 -282 160 -282 163 0 14 86 70 100 65 8 -4 132 -72 275 -152z m-341
-232 c141 -79 256 -146 256 -150 0 -3 -117 -65 -260 -136 l-260 -130 -267 133
-266 133 199 111 c109 61 228 128 264 149 36 20 68 36 71 36 3 -1 122 -67 263
-146z m-759 -458 l275 -138 -77 -77 c-43 -43 -81 -78 -85 -78 -13 0 -518 272
-518 279 0 8 120 151 126 151 2 0 128 -62 279 -137z m1334 65 c34 -40 61 -75
61 -79 0 -9 -506 -279 -523 -279 -15 0 -163 147 -156 154 3 3 129 66 280 140
151 74 275 135 275 135 1 1 29 -31 63 -71z m-971 -837 l-3 -120 -270 152 -270
152 -3 78 -3 79 144 -76 c176 -92 200 -96 274 -37 26 21 66 57 88 80 l40 42 3
-115 c1 -63 1 -169 0 -235z m385 242 c47 -44 75 -63 94 -63 14 0 93 35 174 77
81 43 150 75 151 73 2 -3 1 -38 -2 -78 l-5 -74 -200 -112 c-110 -61 -230 -128
-267 -149 l-68 -38 0 237 0 237 27 -24 c15 -13 58 -52 96 -86z"/>
</g>
</svg>
