<svg width="347" height="208" viewBox="0 0 347 208" fill="none" xmlns="http://www.w3.org/2000/svg">
<path d="M132.351 33.0522L220.2 183.893C226.371 194.49 241.68 194.49 247.852 183.893L335.701 33.0522C341.913 22.3857 334.218 9 321.875 9H146.177C133.834 9 126.139 22.3856 132.351 33.0522Z" fill="#CC213C" stroke="white" stroke-width="18"/>
<path d="M233.589 141.469V135.661H219.525V129.757L234.789 110.557H242.613V128.365H245.397V135.661H242.613V141.469H233.589ZM228.213 128.749H235.173V120.349L228.213 128.749Z" fill="white"/>
<path d="M171.474 40.237C171.922 39.461 172.506 38.5785 173.224 37.5894C173.9 36.6121 174.63 35.6667 175.416 34.7533C176.214 33.8836 176.995 33.1707 177.759 32.6144L184.036 36.2385C183.348 36.7276 182.644 37.3377 181.927 38.0688C181.193 38.8276 180.515 39.6184 179.892 40.4412C179.269 41.264 178.781 41.9802 178.429 42.5899C177.549 44.1141 177.145 45.3586 177.216 46.3235C177.271 47.316 177.812 48.1083 178.837 48.7003C179.807 49.2603 180.644 49.4108 181.347 49.152C182.079 48.9092 182.844 48.095 183.644 46.7093L188.348 38.5617L191.923 40.6257L203.196 48.0764L193.188 65.4108L187.514 61.4144L193.346 51.3131L189.666 48.8556L187.914 51.8902C186.042 55.1326 183.937 57.1138 181.6 57.8337C179.263 58.5536 176.709 58.1136 173.938 56.5136C171.277 54.9776 169.666 52.8092 169.103 50.0084C168.524 47.2354 169.314 43.9782 171.474 40.237Z" fill="white"/>
<path d="M291.642 39.7055C295.978 47.2157 294.529 53.0588 287.296 57.2348L282.141 60.2108C279.924 61.4908 277.655 62.1359 275.333 62.1463C273.011 62.1566 270.807 61.5076 268.722 60.1991C266.608 58.9066 264.784 56.9302 263.248 54.2697C262.4 52.8009 261.753 51.4563 261.307 50.2358C260.817 49.0036 260.47 47.7628 260.266 46.5134L266.335 43.0094C266.463 44.1916 266.748 45.3573 267.19 46.5064C267.588 47.6437 268.139 48.8221 268.843 50.0415C269.995 52.0368 271.255 53.3232 272.623 53.9005C273.963 54.4939 275.188 54.4706 276.296 53.8306L277.044 53.3986C276.157 52.9501 275.285 52.2712 274.428 51.3622C273.57 50.4531 272.878 49.5413 272.35 48.6267C270.446 45.3289 269.838 42.4838 270.525 40.0913C271.17 37.6871 272.933 35.653 275.815 33.989C277.616 32.949 279.453 32.3871 281.327 32.3033C283.172 32.2356 284.968 32.7872 286.716 33.9583C288.464 35.1293 290.106 37.0451 291.642 39.7055ZM286.089 42.8559C285.289 41.4703 284.392 40.6209 283.398 40.3078C282.361 39.983 281.274 40.1486 280.138 40.8046C278.946 41.4926 278.222 42.3174 277.964 43.2791C277.663 44.2291 277.944 45.4523 278.808 46.9488C279.208 47.6416 279.719 48.2704 280.34 48.8353C280.962 49.4001 281.651 49.8892 282.407 50.3026L284.361 49.1746C285.746 48.3746 286.58 47.45 286.861 46.4009C287.114 45.3678 286.857 44.1862 286.089 42.8559Z" fill="white"/>
<circle cx="234.526" cy="76.75" r="10" transform="rotate(180 234.526 76.75)" fill="#D0CB90"/>
<path d="M213.749 174.728L126.37 23.9393C120.205 13.3021 104.846 13.3022 98.6823 23.9393L11.3031 174.728C5.122 185.395 12.8186 198.75 25.1468 198.75H199.905C212.233 198.75 219.93 185.395 213.749 174.728Z" fill="#136990" stroke="white" stroke-width="18"/>
<path d="M115.642 65V87.56L120.778 86.792V94.328L106.618 96.392V65H115.642Z" fill="white"/>
<path d="M163.443 173.612L159.872 171.54C158.852 169.912 158.079 168.205 157.554 166.421C157.029 164.637 156.548 162.711 156.112 160.645C155.741 158.913 155.423 157.508 155.157 156.429C154.907 155.322 154.587 154.433 154.197 153.763C153.796 153.049 153.207 152.467 152.432 152.017C150.467 150.877 148.744 151.597 147.261 154.178C146.576 155.371 146.045 156.616 145.668 157.915C145.307 159.185 145.047 160.44 144.889 161.68L138.246 157.826C138.457 156.431 138.876 154.898 139.503 153.228C140.103 151.541 140.85 149.921 141.742 148.367C143.655 145.037 145.87 143.012 148.389 142.29C150.879 141.552 153.439 141.946 156.068 143.472C157.314 144.195 158.306 144.974 159.044 145.809C159.77 146.6 160.331 147.518 160.728 148.562C161.125 149.606 161.473 150.863 161.773 152.332C162.026 153.625 162.287 154.905 162.556 156.171C162.826 157.437 163.177 158.529 163.609 159.446L168.75 150.497L174.728 153.966L163.443 173.612Z" fill="white"/>
<path d="M53.5993 165.663C53.153 164.886 52.6802 163.903 52.181 162.712C51.6541 161.538 51.1905 160.346 50.7903 159.135C50.406 157.952 50.145 156.92 50.0074 156.038L56.2349 152.424C56.3945 153.923 56.7402 155.424 57.2722 156.928C57.8318 158.416 58.4304 159.715 59.068 160.825C59.9606 162.379 60.8159 163.418 61.6338 163.942C62.4676 164.494 63.4104 164.465 64.4621 163.855C66.0121 162.956 66.0857 161.285 64.683 158.843L62.0768 154.307L67.5949 151.771L69.7707 155.558C70.472 156.779 71.1679 157.541 71.8582 157.843C72.5486 158.145 73.3228 158.048 74.1808 157.55C74.9835 157.084 75.3931 156.384 75.4098 155.449C75.4424 154.543 75.0204 153.326 74.1437 151.8C73.4423 150.579 72.5946 149.425 71.6005 148.337C70.6064 147.249 69.6329 146.389 68.68 145.758L74.8661 142.169C75.871 142.954 76.9502 144.03 78.1037 145.396C79.2848 146.745 80.3138 148.183 81.1905 149.709C82.5294 152.04 83.329 154.202 83.5893 156.197C83.8495 158.192 83.6375 159.943 82.9532 161.45C82.2689 162.957 81.1795 164.144 79.6849 165.011C78.4117 165.75 77.1057 166.175 75.7671 166.286C74.4443 166.424 73.2075 166.198 72.0566 165.608C72.4067 168.402 71.184 170.61 68.3885 172.232C66.4788 173.34 64.628 173.748 62.8364 173.456C61.0606 173.191 59.388 172.367 57.8185 170.984C56.2649 169.629 54.8585 167.855 53.5993 165.663Z" fill="white"/>
<ellipse cx="112.028" cy="131" rx="9.95001" ry="10" fill="#D0CB90"/>
</svg>
