<svg width="449" height="351" viewBox="0 0 449 351" fill="none" xmlns="http://www.w3.org/2000/svg">
<g clip-path="url(#clip0_13_3)">
<path d="M25.88 314V273.68H11.4V262.48H55.4V273.68H40.92V314H25.88ZM54.9906 314V276.08H69.4706L69.8706 279.12C71.4173 278.213 73.3906 277.387 75.7906 276.64C78.1906 275.893 80.6173 275.44 83.0706 275.28V286.48C81.684 286.587 80.164 286.773 78.5106 287.04C76.9106 287.307 75.3373 287.653 73.7906 288.08C72.2973 288.453 71.044 288.88 70.0306 289.36V314H54.9906ZM89.9744 271.04V260.16H106.214V271.04H89.9744ZM91.1744 314V287.04H85.6544L86.9344 276.08H106.214V314H91.1744ZM133.988 314.8C126.415 314.8 120.815 313.12 117.188 309.76C113.615 306.4 111.828 301.493 111.828 295.04C111.828 288.64 113.641 283.76 117.268 280.4C120.895 276.987 126.468 275.28 133.988 275.28C141.561 275.28 147.161 276.987 150.788 280.4C154.468 283.76 156.308 288.64 156.308 295.04C156.308 301.493 154.495 306.4 150.868 309.76C147.241 313.12 141.615 314.8 133.988 314.8ZM133.988 303.84C136.441 303.84 138.201 303.147 139.268 301.76C140.388 300.373 140.948 298.133 140.948 295.04C140.948 292 140.388 289.787 139.268 288.4C138.201 286.96 136.441 286.24 133.988 286.24C131.588 286.24 129.855 286.96 128.788 288.4C127.721 289.787 127.188 292 127.188 295.04C127.188 298.133 127.721 300.373 128.788 301.76C129.855 303.147 131.588 303.84 133.988 303.84ZM161.944 314V276.08H175.864L176.264 279.12C177.917 278 179.757 277.093 181.784 276.4C183.864 275.653 186.13 275.28 188.584 275.28C191.037 275.28 192.957 275.627 194.344 276.32C195.73 277.013 196.85 278.027 197.704 279.36C199.41 278.133 201.33 277.147 203.464 276.4C205.65 275.653 208.21 275.28 211.144 275.28C215.57 275.28 218.824 276.453 220.904 278.8C222.984 281.093 224.024 284.613 224.024 289.36V314H209.224V291.12C209.224 289.413 208.877 288.213 208.184 287.52C207.49 286.773 206.344 286.4 204.744 286.4C202.664 286.4 200.957 287.147 199.624 288.64C199.73 289.333 199.784 290 199.784 290.64C199.784 291.227 199.784 291.893 199.784 292.64V314H185.864V290.88C185.864 289.333 185.597 288.213 185.064 287.52C184.53 286.773 183.517 286.4 182.024 286.4C181.01 286.4 180.024 286.667 179.064 287.2C178.104 287.733 177.25 288.373 176.504 289.12V314H161.944ZM233.49 271.04V260.16H249.73V271.04H233.49ZM234.69 314V287.04H229.17L230.45 276.08H249.73V314H234.69ZM256.944 314V276.08H271.024L271.424 278.96C272.864 278 274.757 277.147 277.104 276.4C279.504 275.653 282.064 275.28 284.784 275.28C289.53 275.28 292.997 276.453 295.184 278.8C297.37 281.147 298.464 284.773 298.464 289.68V314H283.424V291.2C283.424 289.493 283.05 288.267 282.304 287.52C281.557 286.773 280.25 286.4 278.384 286.4C277.264 286.4 276.09 286.667 274.864 287.2C273.69 287.733 272.73 288.373 271.984 289.12V314H256.944ZM325.316 314.8C317.743 314.8 312.143 313.12 308.516 309.76C304.943 306.4 303.156 301.493 303.156 295.04C303.156 288.64 304.97 283.76 308.596 280.4C312.223 276.987 317.796 275.28 325.316 275.28C332.89 275.28 338.49 276.987 342.116 280.4C345.796 283.76 347.636 288.64 347.636 295.04C347.636 301.493 345.823 306.4 342.196 309.76C338.57 313.12 332.943 314.8 325.316 314.8ZM325.316 303.84C327.77 303.84 329.53 303.147 330.596 301.76C331.716 300.373 332.276 298.133 332.276 295.04C332.276 292 331.716 289.787 330.596 288.4C329.53 286.96 327.77 286.24 325.316 286.24C322.916 286.24 321.183 286.96 320.116 288.4C319.05 289.787 318.516 292 318.516 295.04C318.516 298.133 319.05 300.373 320.116 301.76C321.183 303.147 322.916 303.84 325.316 303.84ZM351.672 280.08L356.632 261.68H369.192L362.952 280.08H351.672ZM385.963 314.8C382.709 314.8 379.643 314.56 376.763 314.08C373.936 313.653 371.696 313.093 370.043 312.4V301.6C371.909 302.453 374.123 303.12 376.683 303.6C379.296 304.08 381.509 304.32 383.323 304.32C385.243 304.32 386.683 304.267 387.643 304.16C388.656 304.053 389.163 303.6 389.163 302.8C389.163 301.893 388.283 301.2 386.523 300.72C384.763 300.24 382.549 299.547 379.883 298.64C376.416 297.413 373.829 295.973 372.123 294.32C370.416 292.667 369.563 290.267 369.563 287.12C369.563 283.333 371.056 280.427 374.043 278.4C377.029 276.32 381.723 275.28 388.122 275.28C390.576 275.28 393.109 275.467 395.723 275.84C398.336 276.213 400.389 276.64 401.883 277.12V287.68C400.283 286.987 398.523 286.48 396.603 286.16C394.736 285.84 393.029 285.68 391.483 285.68C389.776 285.68 388.256 285.76 386.923 285.92C385.589 286.08 384.923 286.533 384.923 287.28C384.923 288.133 385.669 288.747 387.163 289.12C388.709 289.493 390.763 290.08 393.323 290.88C396.203 291.733 398.443 292.667 400.043 293.68C401.696 294.693 402.843 295.92 403.483 297.36C404.176 298.8 404.523 300.587 404.523 302.72C404.523 306.56 402.949 309.547 399.803 311.68C396.709 313.76 392.096 314.8 385.963 314.8ZM415.115 314.24C414.011 314.24 412.979 314.032 412.019 313.616C411.059 313.2 410.211 312.632 409.475 311.912C408.755 311.176 408.187 310.328 407.771 309.368C407.355 308.408 407.147 307.376 407.147 306.272C407.147 305.168 407.355 304.136 407.771 303.176C408.187 302.216 408.755 301.376 409.475 300.656C410.211 299.92 411.059 299.344 412.019 298.928C412.979 298.512 414.011 298.304 415.115 298.304C416.219 298.304 417.251 298.512 418.211 298.928C419.171 299.344 420.011 299.92 420.731 300.656C421.467 301.376 422.043 302.216 422.459 303.176C422.875 304.136 423.083 305.168 423.083 306.272C423.083 307.376 422.875 308.408 422.459 309.368C422.043 310.328 421.467 311.176 420.731 311.912C420.011 312.632 419.171 313.2 418.211 313.616C417.251 314.032 416.219 314.24 415.115 314.24ZM415.115 311.936C416.171 311.936 417.115 311.696 417.947 311.216C418.779 310.736 419.435 310.072 419.915 309.224C420.411 308.36 420.659 307.376 420.659 306.272C420.659 305.168 420.411 304.192 419.915 303.344C419.435 302.496 418.779 301.832 417.947 301.352C417.115 300.872 416.171 300.632 415.115 300.632C414.075 300.632 413.131 300.872 412.283 301.352C411.451 301.832 410.787 302.496 410.291 303.344C409.811 304.192 409.571 305.168 409.571 306.272C409.571 307.376 409.811 308.36 410.291 309.224C410.787 310.072 411.451 310.736 412.283 311.216C413.131 311.696 414.075 311.936 415.115 311.936ZM415.163 311.024C413.787 311.024 412.667 310.6 411.803 309.752C410.939 308.888 410.507 307.728 410.507 306.272C410.507 305.248 410.715 304.384 411.131 303.68C411.547 302.976 412.107 302.44 412.811 302.072C413.531 301.688 414.331 301.496 415.211 301.496C415.867 301.496 416.435 301.584 416.915 301.76C417.395 301.92 417.843 302.144 418.259 302.432V304.448C417.539 304.016 416.771 303.8 415.955 303.8C415.523 303.8 415.115 303.88 414.731 304.04C414.347 304.184 414.035 304.44 413.795 304.808C413.555 305.16 413.435 305.648 413.435 306.272C413.435 307.216 413.667 307.864 414.131 308.216C414.611 308.552 415.195 308.72 415.883 308.72C416.299 308.72 416.715 308.656 417.131 308.528C417.563 308.4 417.947 308.216 418.283 307.976V310.112C417.851 310.4 417.371 310.624 416.843 310.784C416.331 310.944 415.771 311.024 415.163 311.024Z" fill="#136990"/>
<path d="M198.351 69.0522L286.2 219.893C292.371 230.49 307.68 230.49 313.852 219.893L401.701 69.0522C407.913 58.3857 400.218 45 387.875 45H212.177C199.834 45 192.139 58.3856 198.351 69.0522Z" fill="#CC213C" stroke="white" stroke-width="18"/>
<path d="M299.589 177.469V171.661H285.525V165.757L300.789 146.557H308.613V164.365H311.397V171.661H308.613V177.469H299.589ZM294.213 164.749H301.173V156.349L294.213 164.749Z" fill="white"/>
<path d="M237.474 76.237C237.922 75.461 238.506 74.5785 239.224 73.5894C239.9 72.6121 240.63 71.6667 241.416 70.7533C242.214 69.8836 242.995 69.1707 243.759 68.6144L250.036 72.2385C249.348 72.7276 248.644 73.3377 247.927 74.0688C247.193 74.8276 246.515 75.6184 245.892 76.4412C245.269 77.264 244.781 77.9802 244.429 78.5899C243.549 80.1141 243.145 81.3586 243.216 82.3235C243.271 83.316 243.812 84.1083 244.837 84.7003C245.807 85.2603 246.644 85.4108 247.347 85.152C248.079 84.9092 248.844 84.095 249.644 82.7093L254.348 74.5617L257.923 76.6257L269.196 84.0764L259.188 101.411L253.514 97.4144L259.346 87.3131L255.666 84.8556L253.914 87.8902C252.042 91.1326 249.937 93.1138 247.6 93.8337C245.263 94.5536 242.709 94.1136 239.938 92.5136C237.277 90.9776 235.666 88.8092 235.103 86.0084C234.524 83.2354 235.314 79.9782 237.474 76.237Z" fill="white"/>
<path d="M357.642 75.7055C361.978 83.2157 360.529 89.0588 353.296 93.2348L348.141 96.2108C345.924 97.4908 343.655 98.1359 341.333 98.1463C339.011 98.1566 336.807 97.5076 334.722 96.1991C332.608 94.9066 330.784 92.9302 329.248 90.2697C328.4 88.8009 327.753 87.4563 327.307 86.2358C326.817 85.0036 326.47 83.7628 326.266 82.5134L332.335 79.0094C332.463 80.1916 332.748 81.3573 333.19 82.5064C333.588 83.6437 334.139 84.8221 334.843 86.0415C335.995 88.0368 337.255 89.3232 338.623 89.9005C339.963 90.4939 341.188 90.4706 342.296 89.8306L343.044 89.3986C342.157 88.9501 341.285 88.2712 340.428 87.3622C339.57 86.4531 338.878 85.5413 338.35 84.6267C336.446 81.3289 335.838 78.4838 336.525 76.0913C337.17 73.6871 338.933 71.653 341.815 69.989C343.616 68.949 345.453 68.3871 347.327 68.3033C349.172 68.2356 350.968 68.7872 352.716 69.9583C354.464 71.1293 356.106 73.0451 357.642 75.7055ZM352.089 78.8559C351.289 77.4703 350.392 76.6209 349.398 76.3078C348.361 75.983 347.274 76.1486 346.138 76.8046C344.946 77.4926 344.222 78.3174 343.964 79.2791C343.663 80.2291 343.944 81.4523 344.808 82.9488C345.208 83.6416 345.719 84.2704 346.34 84.8353C346.962 85.4001 347.651 85.8892 348.407 86.3026L350.361 85.1746C351.746 84.3746 352.58 83.45 352.861 82.4009C353.114 81.3678 352.857 80.1862 352.089 78.8559Z" fill="white"/>
<circle cx="300.526" cy="112.75" r="10" transform="rotate(180 300.526 112.75)" fill="#D0CB90"/>
<path d="M279.749 210.728L192.37 59.9393C186.205 49.3021 170.846 49.3022 164.682 59.9393L77.3031 210.728C71.122 221.395 78.8186 234.75 91.1468 234.75H265.905C278.233 234.75 285.93 221.395 279.749 210.728Z" fill="#136990" stroke="white" stroke-width="18"/>
<path d="M181.642 101V123.56L186.778 122.792V130.328L172.618 132.392V101H181.642Z" fill="white"/>
<path d="M229.443 209.612L225.872 207.54C224.852 205.912 224.079 204.205 223.554 202.421C223.029 200.637 222.548 198.711 222.112 196.645C221.741 194.913 221.423 193.508 221.157 192.429C220.907 191.322 220.587 190.433 220.197 189.763C219.796 189.049 219.207 188.467 218.432 188.017C216.467 186.877 214.744 187.597 213.261 190.178C212.576 191.371 212.045 192.616 211.668 193.915C211.307 195.185 211.047 196.44 210.889 197.68L204.246 193.826C204.457 192.431 204.876 190.898 205.503 189.228C206.103 187.541 206.85 185.921 207.742 184.367C209.655 181.037 211.87 179.012 214.389 178.29C216.879 177.552 219.439 177.946 222.068 179.472C223.314 180.195 224.306 180.974 225.044 181.809C225.77 182.6 226.331 183.518 226.728 184.562C227.125 185.606 227.473 186.863 227.773 188.332C228.026 189.625 228.287 190.905 228.556 192.171C228.826 193.437 229.177 194.529 229.609 195.446L234.75 186.497L240.728 189.966L229.443 209.612Z" fill="white"/>
<path d="M119.599 201.663C119.153 200.886 118.68 199.903 118.181 198.712C117.654 197.538 117.191 196.346 116.79 195.135C116.406 193.952 116.145 192.92 116.007 192.038L122.235 188.424C122.394 189.923 122.74 191.424 123.272 192.928C123.832 194.416 124.43 195.715 125.068 196.825C125.961 198.379 126.816 199.418 127.634 199.942C128.468 200.494 129.41 200.465 130.462 199.855C132.012 198.956 132.086 197.285 130.683 194.843L128.077 190.307L133.595 187.771L135.771 191.558C136.472 192.779 137.168 193.541 137.858 193.843C138.549 194.145 139.323 194.048 140.181 193.55C140.983 193.084 141.393 192.384 141.41 191.449C141.442 190.543 141.02 189.326 140.144 187.8C139.442 186.579 138.595 185.425 137.601 184.337C136.606 183.249 135.633 182.389 134.68 181.758L140.866 178.169C141.871 178.954 142.95 180.03 144.104 181.396C145.285 182.745 146.314 184.183 147.19 185.709C148.529 188.04 149.329 190.202 149.589 192.197C149.849 194.192 149.637 195.943 148.953 197.45C148.269 198.957 147.179 200.144 145.685 201.011C144.412 201.75 143.106 202.175 141.767 202.286C140.444 202.424 139.208 202.198 138.057 201.608C138.407 204.402 137.184 206.61 134.389 208.232C132.479 209.34 130.628 209.748 128.836 209.456C127.061 209.191 125.388 208.367 123.819 206.984C122.265 205.629 120.859 203.855 119.599 201.663Z" fill="white"/>
<ellipse cx="178.028" cy="167" rx="9.95001" ry="10" fill="#D0CB90"/>
</g>
<defs>
<clipPath id="clip0_13_3">
<rect width="449" height="351" fill="white"/>
</clipPath>
</defs>
</svg>
