<svg width="1636" height="240" viewBox="0 0 1636 240" fill="none" xmlns="http://www.w3.org/2000/svg">
<path d="M360.76 203V122.36H331.8V99.96H419.8V122.36H390.84V203H360.76ZM418.981 203V127.16H447.941L448.741 133.24C451.835 131.427 455.781 129.773 460.581 128.28C465.381 126.787 470.235 125.88 475.141 125.56V147.96C472.368 148.173 469.328 148.547 466.021 149.08C462.821 149.613 459.675 150.307 456.581 151.16C453.595 151.907 451.088 152.76 449.061 153.72V203H418.981ZM488.949 117.08V95.32H521.429V117.08H488.949ZM491.349 203V149.08H480.309L482.869 127.16H521.429V203H491.349ZM576.976 204.6C561.83 204.6 550.63 201.24 543.376 194.52C536.23 187.8 532.656 177.987 532.656 165.08C532.656 152.28 536.283 142.52 543.536 135.8C550.79 128.973 561.936 125.56 576.976 125.56C592.123 125.56 603.323 128.973 610.576 135.8C617.936 142.52 621.616 152.28 621.616 165.08C621.616 177.987 617.99 187.8 610.736 194.52C603.483 201.24 592.23 204.6 576.976 204.6ZM576.976 182.68C581.883 182.68 585.403 181.293 587.536 178.52C589.776 175.747 590.896 171.267 590.896 165.08C590.896 159 589.776 154.573 587.536 151.8C585.403 148.92 581.883 147.48 576.976 147.48C572.176 147.48 568.71 148.92 566.576 151.8C564.443 154.573 563.376 159 563.376 165.08C563.376 171.267 564.443 175.747 566.576 178.52C568.71 181.293 572.176 182.68 576.976 182.68ZM632.888 203V127.16H660.728L661.528 133.24C664.834 131 668.514 129.187 672.568 127.8C676.728 126.307 681.261 125.56 686.168 125.56C691.074 125.56 694.914 126.253 697.688 127.64C700.461 129.027 702.701 131.053 704.408 133.72C707.821 131.267 711.661 129.293 715.928 127.8C720.301 126.307 725.421 125.56 731.288 125.56C740.141 125.56 746.648 127.907 750.808 132.6C754.968 137.187 757.048 144.227 757.048 153.72V203H727.448V157.24C727.448 153.827 726.754 151.427 725.368 150.04C723.981 148.547 721.688 147.8 718.488 147.8C714.328 147.8 710.914 149.293 708.248 152.28C708.461 153.667 708.568 155 708.568 156.28C708.568 157.453 708.568 158.787 708.568 160.28V203H680.728V156.76C680.728 153.667 680.194 151.427 679.128 150.04C678.061 148.547 676.034 147.8 673.048 147.8C671.021 147.8 669.048 148.333 667.128 149.4C665.208 150.467 663.501 151.747 662.008 153.24V203H632.888ZM775.98 117.08V95.32H808.46V117.08H775.98ZM778.38 203V149.08H767.34L769.9 127.16H808.46V203H778.38ZM822.888 203V127.16H851.048L851.848 132.92C854.728 131 858.514 129.293 863.208 127.8C868.008 126.307 873.128 125.56 878.568 125.56C888.061 125.56 894.994 127.907 899.368 132.6C903.741 137.293 905.928 144.547 905.928 154.36V203H875.848V157.4C875.848 153.987 875.101 151.533 873.608 150.04C872.114 148.547 869.501 147.8 865.768 147.8C863.528 147.8 861.181 148.333 858.728 149.4C856.381 150.467 854.461 151.747 852.968 153.24V203H822.888ZM959.633 204.6C944.486 204.6 933.286 201.24 926.033 194.52C918.886 187.8 915.313 177.987 915.313 165.08C915.313 152.28 918.939 142.52 926.193 135.8C933.446 128.973 944.593 125.56 959.633 125.56C974.779 125.56 985.979 128.973 993.233 135.8C1000.59 142.52 1004.27 152.28 1004.27 165.08C1004.27 177.987 1000.65 187.8 993.393 194.52C986.139 201.24 974.886 204.6 959.633 204.6ZM959.633 182.68C964.539 182.68 968.059 181.293 970.193 178.52C972.433 175.747 973.553 171.267 973.553 165.08C973.553 159 972.433 154.573 970.193 151.8C968.059 148.92 964.539 147.48 959.633 147.48C954.833 147.48 951.366 148.92 949.233 151.8C947.099 154.573 946.033 159 946.033 165.08C946.033 171.267 947.099 175.747 949.233 178.52C951.366 181.293 954.833 182.68 959.633 182.68ZM1012.34 135.16L1022.26 98.36H1047.38L1034.9 135.16H1012.34ZM1080.93 204.6C1074.42 204.6 1068.29 204.12 1062.53 203.16C1056.87 202.307 1052.39 201.187 1049.09 199.8V178.2C1052.82 179.907 1057.25 181.24 1062.37 182.2C1067.59 183.16 1072.02 183.64 1075.65 183.64C1079.49 183.64 1082.37 183.533 1084.29 183.32C1086.31 183.107 1087.33 182.2 1087.33 180.6C1087.33 178.787 1085.57 177.4 1082.05 176.44C1078.53 175.48 1074.1 174.093 1068.77 172.28C1061.83 169.827 1056.66 166.947 1053.25 163.64C1049.83 160.333 1048.13 155.533 1048.13 149.24C1048.13 141.667 1051.11 135.853 1057.09 131.8C1063.06 127.64 1072.45 125.56 1085.24 125.56C1090.15 125.56 1095.22 125.933 1100.45 126.68C1105.67 127.427 1109.78 128.28 1112.77 129.24V150.36C1109.57 148.973 1106.05 147.96 1102.21 147.32C1098.47 146.68 1095.06 146.36 1091.97 146.36C1088.55 146.36 1085.51 146.52 1082.85 146.84C1080.18 147.16 1078.85 148.067 1078.85 149.56C1078.85 151.267 1080.34 152.493 1083.33 153.24C1086.42 153.987 1090.53 155.16 1095.65 156.76C1101.41 158.467 1105.89 160.333 1109.09 162.36C1112.39 164.387 1114.69 166.84 1115.97 169.72C1117.35 172.6 1118.05 176.173 1118.05 180.44C1118.05 188.12 1114.9 194.093 1108.61 198.36C1102.42 202.52 1093.19 204.6 1080.93 204.6ZM1162.11 203V99.96H1215.23C1223.65 99.96 1230.59 101.667 1236.03 105.08C1241.57 108.387 1245.68 112.92 1248.35 118.68C1251.01 124.44 1252.35 130.84 1252.35 137.88C1252.35 145.133 1250.8 151.587 1247.71 157.24C1244.61 162.893 1240.24 167.32 1234.59 170.52C1228.93 173.72 1222.27 175.32 1214.59 175.32H1192.19V203H1162.11ZM1192.19 152.28H1207.71C1212.4 152.28 1215.87 150.947 1218.11 148.28C1220.45 145.613 1221.63 142.147 1221.63 137.88C1221.63 133.293 1220.56 129.667 1218.43 127C1216.29 124.333 1212.99 123 1208.51 123H1192.19V152.28ZM1266.45 117.08V95.32H1298.93V117.08H1266.45ZM1268.85 203V149.08H1257.81L1260.37 127.16H1298.93V203H1268.85ZM1310.16 203V186.52L1342 150.2H1311.28V127.16H1380.24V144.12L1349.36 179.96H1381.36V203H1310.16ZM1389.38 203V186.52L1421.22 150.2H1390.5V127.16H1459.46V144.12L1428.58 179.96H1460.58V203H1389.38ZM1492.35 204.6C1487.55 204.6 1483.07 203.747 1478.91 202.04C1474.86 200.333 1471.6 197.667 1469.15 194.04C1466.7 190.413 1465.47 185.827 1465.47 180.28C1465.47 172.28 1468.14 166.093 1473.47 161.72C1478.8 157.24 1486.86 155 1497.63 155H1517.31V153.56C1517.31 150.573 1516.08 148.387 1513.63 147C1511.18 145.613 1506.86 144.92 1500.67 144.92C1491.92 144.92 1483.28 146.253 1474.75 148.92V130.84C1478.59 129.347 1483.39 128.12 1489.15 127.16C1494.91 126.093 1500.78 125.56 1506.75 125.56C1518.8 125.56 1528.35 128.013 1535.39 132.92C1542.43 137.827 1545.95 145.613 1545.95 156.28V203H1519.71L1518.27 196.92C1515.6 199.267 1512.14 201.133 1507.87 202.52C1503.71 203.907 1498.54 204.6 1492.35 204.6ZM1502.59 187C1506 187 1508.88 186.413 1511.23 185.24C1513.68 184.067 1515.71 182.627 1517.31 180.92V171.48H1502.75C1496.14 171.48 1492.83 174.093 1492.83 179.32C1492.83 184.44 1496.08 187 1502.59 187ZM1570.26 203.5C1567.96 203.5 1565.81 203.067 1563.81 202.2C1561.81 201.333 1560.04 200.15 1558.51 198.65C1557.01 197.117 1555.82 195.35 1554.96 193.35C1554.09 191.35 1553.66 189.2 1553.66 186.9C1553.66 184.6 1554.09 182.45 1554.96 180.45C1555.82 178.45 1557.01 176.7 1558.51 175.2C1560.04 173.667 1561.81 172.467 1563.81 171.6C1565.81 170.733 1567.96 170.3 1570.26 170.3C1572.56 170.3 1574.71 170.733 1576.71 171.6C1578.71 172.467 1580.46 173.667 1581.96 175.2C1583.49 176.7 1584.69 178.45 1585.56 180.45C1586.42 182.45 1586.86 184.6 1586.86 186.9C1586.86 189.2 1586.42 191.35 1585.56 193.35C1584.69 195.35 1583.49 197.117 1581.96 198.65C1580.46 200.15 1578.71 201.333 1576.71 202.2C1574.71 203.067 1572.56 203.5 1570.26 203.5ZM1570.26 198.7C1572.46 198.7 1574.42 198.2 1576.16 197.2C1577.89 196.2 1579.26 194.817 1580.26 193.05C1581.29 191.25 1581.81 189.2 1581.81 186.9C1581.81 184.6 1581.29 182.567 1580.26 180.8C1579.26 179.033 1577.89 177.65 1576.16 176.65C1574.42 175.65 1572.46 175.15 1570.26 175.15C1568.09 175.15 1566.12 175.65 1564.36 176.65C1562.62 177.65 1561.24 179.033 1560.21 180.8C1559.21 182.567 1558.71 184.6 1558.71 186.9C1558.71 189.2 1559.21 191.25 1560.21 193.05C1561.24 194.817 1562.62 196.2 1564.36 197.2C1566.12 198.2 1568.09 198.7 1570.26 198.7ZM1570.36 196.8C1567.49 196.8 1565.16 195.917 1563.36 194.15C1561.56 192.35 1560.66 189.933 1560.66 186.9C1560.66 184.767 1561.09 182.967 1561.96 181.5C1562.82 180.033 1563.99 178.917 1565.46 178.15C1566.96 177.35 1568.62 176.95 1570.46 176.95C1571.82 176.95 1573.01 177.133 1574.01 177.5C1575.01 177.833 1575.94 178.3 1576.81 178.9V183.1C1575.31 182.2 1573.71 181.75 1572.01 181.75C1571.11 181.75 1570.26 181.917 1569.46 182.25C1568.66 182.55 1568.01 183.083 1567.51 183.85C1567.01 184.583 1566.76 185.6 1566.76 186.9C1566.76 188.867 1567.24 190.217 1568.21 190.95C1569.21 191.65 1570.42 192 1571.86 192C1572.72 192 1573.59 191.867 1574.46 191.6C1575.36 191.333 1576.16 190.95 1576.86 190.45V194.9C1575.96 195.5 1574.96 195.967 1573.86 196.3C1572.79 196.633 1571.62 196.8 1570.36 196.8Z" fill="#136990"/>
<path d="M140.351 46.0522L228.2 196.893C234.371 207.49 249.68 207.49 255.852 196.893L343.701 46.0522C349.913 35.3857 342.218 22 329.875 22H154.177C141.834 22 134.139 35.3856 140.351 46.0522Z" fill="#CC213C" stroke="white" stroke-width="18"/>
<path d="M241.589 154.469V148.661H227.525V142.757L242.789 123.557H250.613V141.365H253.397V148.661H250.613V154.469H241.589ZM236.213 141.749H243.173V133.349L236.213 141.749Z" fill="white"/>
<path d="M179.474 53.237C179.922 52.461 180.506 51.5785 181.224 50.5894C181.9 49.6121 182.63 48.6667 183.416 47.7533C184.214 46.8836 184.995 46.1707 185.759 45.6144L192.036 49.2385C191.348 49.7276 190.644 50.3377 189.927 51.0688C189.193 51.8276 188.515 52.6184 187.892 53.4412C187.269 54.264 186.781 54.9802 186.429 55.5899C185.549 57.1141 185.145 58.3586 185.216 59.3235C185.271 60.316 185.812 61.1083 186.837 61.7003C187.807 62.2603 188.644 62.4108 189.347 62.152C190.079 61.9092 190.844 61.095 191.644 59.7093L196.348 51.5617L199.923 53.6257L211.196 61.0764L201.188 78.4108L195.514 74.4144L201.346 64.3131L197.666 61.8556L195.914 64.8902C194.042 68.1326 191.937 70.1138 189.6 70.8337C187.263 71.5536 184.709 71.1136 181.938 69.5136C179.277 67.9776 177.666 65.8092 177.103 63.0084C176.524 60.2354 177.314 56.9782 179.474 53.237Z" fill="white"/>
<path d="M299.642 52.7055C303.978 60.2157 302.529 66.0588 295.296 70.2348L290.141 73.2108C287.924 74.4908 285.655 75.1359 283.333 75.1463C281.011 75.1566 278.807 74.5076 276.722 73.1991C274.608 71.9066 272.784 69.9302 271.248 67.2697C270.4 65.8009 269.753 64.4563 269.307 63.2358C268.817 62.0036 268.47 60.7628 268.266 59.5134L274.335 56.0094C274.463 57.1916 274.748 58.3573 275.19 59.5064C275.588 60.6437 276.139 61.8221 276.843 63.0415C277.995 65.0368 279.255 66.3232 280.623 66.9005C281.963 67.4939 283.188 67.4706 284.296 66.8306L285.044 66.3986C284.157 65.9501 283.285 65.2712 282.428 64.3622C281.57 63.4531 280.878 62.5413 280.35 61.6267C278.446 58.3289 277.838 55.4838 278.525 53.0913C279.17 50.6871 280.933 48.653 283.815 46.989C285.616 45.949 287.453 45.3871 289.327 45.3033C291.172 45.2356 292.968 45.7872 294.716 46.9583C296.464 48.1293 298.106 50.0451 299.642 52.7055ZM294.089 55.8559C293.289 54.4703 292.392 53.6209 291.398 53.3078C290.361 52.983 289.274 53.1486 288.138 53.8046C286.946 54.4926 286.222 55.3174 285.964 56.2791C285.663 57.2291 285.944 58.4523 286.808 59.9488C287.208 60.6416 287.719 61.2704 288.34 61.8353C288.962 62.4001 289.651 62.8892 290.407 63.3026L292.361 62.1746C293.746 61.3746 294.58 60.45 294.861 59.4009C295.114 58.3678 294.857 57.1862 294.089 55.8559Z" fill="white"/>
<circle cx="242.526" cy="89.75" r="10" transform="rotate(180 242.526 89.75)" fill="#D0CB90"/>
<path d="M221.749 187.728L134.37 36.9393C128.205 26.3021 112.846 26.3022 106.682 36.9393L19.3031 187.728C13.122 198.395 20.8186 211.75 33.1468 211.75H207.905C220.233 211.75 227.93 198.395 221.749 187.728Z" fill="#136990" stroke="white" stroke-width="18"/>
<path d="M123.642 78V100.56L128.778 99.792V107.328L114.618 109.392V78H123.642Z" fill="white"/>
<path d="M171.443 186.612L167.872 184.54C166.852 182.912 166.079 181.205 165.554 179.421C165.029 177.637 164.548 175.711 164.112 173.645C163.741 171.913 163.423 170.508 163.157 169.429C162.907 168.322 162.587 167.433 162.197 166.763C161.796 166.049 161.207 165.467 160.432 165.017C158.467 163.877 156.744 164.597 155.261 167.178C154.576 168.371 154.045 169.616 153.668 170.915C153.307 172.185 153.047 173.44 152.889 174.68L146.246 170.826C146.457 169.431 146.876 167.898 147.503 166.228C148.103 164.541 148.85 162.921 149.742 161.367C151.655 158.037 153.87 156.012 156.389 155.29C158.879 154.552 161.439 154.946 164.068 156.472C165.314 157.195 166.306 157.974 167.044 158.809C167.77 159.6 168.331 160.518 168.728 161.562C169.125 162.606 169.473 163.863 169.773 165.332C170.026 166.625 170.287 167.905 170.556 169.171C170.826 170.437 171.177 171.529 171.609 172.446L176.75 163.497L182.728 166.966L171.443 186.612Z" fill="white"/>
<path d="M61.5993 178.663C61.153 177.886 60.6802 176.903 60.181 175.712C59.6541 174.538 59.1905 173.346 58.7903 172.135C58.406 170.952 58.145 169.92 58.0074 169.038L64.2349 165.424C64.3945 166.923 64.7402 168.424 65.2722 169.928C65.8318 171.416 66.4304 172.715 67.068 173.825C67.9606 175.379 68.8159 176.418 69.6338 176.942C70.4676 177.494 71.4104 177.465 72.4621 176.855C74.0121 175.956 74.0857 174.285 72.683 171.843L70.0768 167.307L75.5949 164.771L77.7707 168.558C78.472 169.779 79.1679 170.541 79.8582 170.843C80.5486 171.145 81.3228 171.048 82.1808 170.55C82.9835 170.084 83.3931 169.384 83.4098 168.449C83.4424 167.543 83.0204 166.326 82.1437 164.8C81.4423 163.579 80.5946 162.425 79.6005 161.337C78.6064 160.249 77.6329 159.389 76.68 158.758L82.8661 155.169C83.871 155.954 84.9502 157.03 86.1037 158.396C87.2848 159.745 88.3138 161.183 89.1905 162.709C90.5294 165.04 91.329 167.202 91.5893 169.197C91.8495 171.192 91.6375 172.943 90.9532 174.45C90.2689 175.957 89.1795 177.144 87.6849 178.011C86.4117 178.75 85.1057 179.175 83.7671 179.286C82.4443 179.424 81.2075 179.198 80.0566 178.608C80.4067 181.402 79.184 183.61 76.3885 185.232C74.4788 186.34 72.628 186.748 70.8364 186.456C69.0606 186.191 67.388 185.367 65.8185 183.984C64.2649 182.629 62.8585 180.855 61.5993 178.663Z" fill="white"/>
<ellipse cx="120.028" cy="144" rx="9.95001" ry="10" fill="#D0CB90"/>
</svg>
